# xmcd
# Track frame offsets:
# 183
# 7760
# 22063
# 35238
# 48145
# 61023
# 75568
# 85573
# 97345
# 107900
# 119930
# 132740
#
# Disc length: 1915 seconds
# Revision: 0
# Processed by: cddbd v1.5PL3 Copyright (c) Steve Scherf et al.
# Submitted via: VisiTrax 2.9.7.197 - For more info visit www.synapsa.com
#
DISCID=9f07790c
DTITLE=West Virginian Railroad - Silver Bells
DYEAR=1900
DGENRE=
TTITLE0=Rudolph The Red-Nosed Reindeer
TTITLE1=Christmas Day
TTITLE2=I Belive In Santa Claus
TTITLE3=Like Me End You
TTITLE4=Silver Bells
TTITLE5=Christmas Trail
TTITLE6=All I Want For Christmas
TTITLE7=Christmas Eve Can Kill You
TTITLE8=Blue Christmas Tree
TTITLE9=Blue Christmas
TTITLE10=Our House
TTITLE11=Feliz Navidad
EXTD=
EXTT0=
EXTT1=
EXTT2=
EXTT3=
EXTT4=
EXTT5=
EXTT6=
EXTT7=
EXTT8=
EXTT9=
EXTT10=
EXTT11=
PLAYORDER=
